<svg version="1.2" xmlns="http://www.w3.org/2000/svg" viewBox="0 0 131 41" width="131" height="41">
	<title>New Project</title>
	<style>
		.s0 { fill: #ffffff } 
	</style>
	<path id="EMOTIONAL WELLNESS" class="s0" aria-label="EMOTIONAL WELLNESS"  d="m9 26.7c0.4 0.2 2.2 1 3.1 1.3 0.5 0.1 0.8 0 0.7-0.5 0-0.4-0.4-0.8-0.9-1 0 0-1.3-0.4-1.3-0.4-0.4-0.2-0.9-0.4-0.9-0.9 0.1-0.3 0.2-1.3 0.3-1.3 0.3-0.2 1.5 0.4 1.9 0.4 0.3 0.1 0.5 0 0.5-0.3 0-0.8-0.6-1-1.6-1.4-0.3-0.2-0.4-0.4-0.4-0.7 0-0.2 0.2-0.7 0.2-0.9 0-0.4 0.3-0.6 0.7-0.4 0.5 0.1 2 0.5 2.2 0.5 0.3 0 0.4-0.3 0.4-0.6 0-0.4-0.3-0.8-0.6-0.9-0.3-0.1-2.5-0.6-3-0.7-0.4-0.1-0.7 0-0.8 0.4-0.1 0.3-0.3 1-0.6 2.7-0.1 0.5-0.3 1.3-0.4 2-0.1 0.7-0.2 1.3-0.1 1.6 0 0.4 0.2 0.8 0.6 1.1zm11.1 3.7c0.3 0.2 0.6 0.1 0.7-0.2 0.1-0.2 0.2-1.1 0.3-2.3 0.1-0.6 0.2-1.2 0.3-1.9 0.1-0.7 0.1-1.4 0.2-2.1 0.2-1.3 0.1-1.9-0.5-2.3-0.5-0.5-1-0.2-1.9 1.1 0 0-0.6 0.9-0.6 0.9-0.2 0.4-0.4 0.3-0.6-0.2-0.4-1-0.7-1.8-1.1-2.3-0.4-0.6-0.9-0.6-1.2-0.2-0.2 0.3-0.4 1.2-0.6 2.2-0.2 1-0.3 2.1-0.4 2.8-0.1 0.3-0.1 0.5-0.1 0.7 0 0.4 0.3 0.9 0.6 1.1 0.4 0.2 0.7 0 0.7-0.7 0.1-1.2 0.4-3.3 0.7-3.2 0.5 0.1 0.7 1.8 0.9 2.3 0.3 0.8 0.9 1 1.3 0.6 0.1-0.1 0.6-1.1 0.8-1.3 0.1-0.2 0.4 0 0.4 0.3-0.2 1.8-0.5 3-0.4 3.7 0 0.5 0.2 0.8 0.5 1zm4.6 1c0.9 0.2 1.6-0.4 2.1-1.5 0.3-0.6 0.5-1.2 0.6-1.9 0.1-0.7 0.1-1.5 0.1-2.2-0.1-1.2-0.5-2.9-1.4-3-0.9-0.2-1.8 0.6-2.4 1.8-0.3 0.6-0.5 1.3-0.7 2-0.1 0.7-0.1 1.4-0.1 2.2 0.1 1.2 0.8 2.3 1.8 2.6zm-0.1-1.7c-0.2-0.1-0.4-0.4-0.4-0.9-0.1-0.7 0.1-1.7 0.4-2.5 0.4-0.9 0.8-1.6 1.2-1.5 0.3 0.1 0.3 0.4 0.4 0.7 0 0.8-0.1 1.9-0.4 2.8-0.3 0.9-0.7 1.5-1.2 1.4zm6.1 3.5c0.3 0.2 0.6 0.1 0.8-0.2 0.1-0.1 0.2-0.6 0.4-1.3 0.2-0.7 0.4-1.7 0.7-2.7 0.2-0.8 0.4-1.6 0.5-2.4 0.2-0.5 0.5-0.7 0.9-0.6 0.6 0.1 1.3 0.2 1.9 0.3 0.7 0.1 1 0 1-0.6 0.1-0.3-0.1-0.7-0.3-0.9-0.2-0.1-0.3-0.2-0.9-0.3-0.5-0.1-1.4-0.2-3-0.4 0 0-3.3-0.6-3.3-0.6-0.7-0.1-1.1 0.2-1 0.8 0.1 0.8 0.6 0.9 1.4 1 0.3 0.1 0.7 0.1 1.3 0.2 0.4 0.1 0.7 0.3 0.6 0.7-0.4 1.7-0.7 3.1-1 4.1-0.2 1-0.3 1.6-0.4 1.8 0 0.4 0.1 0.8 0.4 1.1zm6.5 0.6c0.5 0.3 0.7 0 0.9-0.6 0.3-1 0.5-2.1 0.8-3.2 0.2-1 0.5-2.1 0.6-3.2 0.2-1.1 0.1-1.7-0.4-1.9-0.4-0.2-0.6 0-0.8 0.7-0.1 0.6-0.3 1.9-0.8 4-0.2 1.1-0.7 2.8-0.7 3.4 0 0.4 0.2 0.7 0.4 0.8zm5.1 1.2c0.9 0.1 1.7-0.7 2.3-2 0.2-0.6 0.5-1.4 0.6-2.2 0.1-0.7 0.2-1.6 0.2-2.3-0.1-1.4-0.3-3.1-1.3-3.2-0.9-0.1-1.8 0.9-2.5 2.3-0.3 0.6-0.6 1.4-0.8 2.3-0.2 0.8-0.2 1.6-0.2 2.4 0.1 1.4 0.7 2.6 1.7 2.7zm0-1.9c-0.2 0-0.4-0.4-0.4-0.9 0-0.8 0.2-1.9 0.6-2.9 0.4-1 0.8-1.8 1.2-1.7 0.3 0 0.4 0.4 0.4 0.7 0 0.8-0.2 2.1-0.5 3.1-0.4 1-0.8 1.8-1.3 1.7zm8.6 3.5c0.3 0 0.5-0.2 0.6-0.7 0.2-1 0.4-1.9 0.5-2.7 0.2-0.8 0.4-1.6 0.5-2.3 0.4-1.5 0.7-2.7 1.1-3.9 0.3-0.8 0.4-1.6-0.3-1.9-0.3-0.2-0.6 0-0.7 0.3-0.4 1.2-0.7 2.1-0.9 2.9-0.2 0.7-0.4 1.4-0.5 2.2-0.2 0.8-0.6 1.1-0.7 0.5-0.2-0.7-0.7-2.7-0.9-3.5-0.4-1.1-0.6-1.7-1.3-1.8-0.4 0-0.7 0.8-1 1.8-0.2 1.1-0.4 2.4-0.6 3.4-0.3 1.7-0.6 3.5-0.3 4.3 0.1 0.4 0.3 0.6 0.6 0.6 0.4 0 0.6-0.3 0.6-1 0-0.6 0.1-1.8 0.3-3 0.2-1.1 0.4-2.1 0.7-2.1 0.2 0 0.3 0.3 0.4 0.9 0.3 1.4 0.6 2.7 0.8 4 0.3 1.1 0.5 2 1.1 2zm6.6 0.3c0.4 0.1 0.6-0.2 0.7-0.7 0.1-0.3 0.2-1.8 0.4-3.4 0.1-1.5 0.2-3.1 0.2-3.6 0-1.4-0.2-3-1.1-3.1-0.5 0-1.1 0.9-1.7 2.1-0.5 1.1-1 2.6-1.4 3.6-0.5 1.3-1.1 3.1-1.1 3.9 0 0.4 0.2 0.9 0.6 0.9 0.3 0 0.7-0.2 0.7-0.7 0.2-1 0.6-1.5 1.5-1.5 0.5 0.1 0.7 0.1 0.7 0.6 0 0.9-0.2 1.7 0.5 1.9zm-0.2-5.2c0 0.4-0.4 0.7-0.7 0.7-0.3 0-0.4-0.2-0.4-0.4 0-0.3 0.3-1.1 0.7-1.9 0-0.2 0.2-0.3 0.3-0.1 0.2 0.1 0.2 0.4 0.1 1.7zm3.5 4.4c1.1-0.2 2.2-0.4 2.7-0.5 0.3-0.1 0.6-0.4 0.6-0.9 0-1.1-1-1-2.1-0.8-0.5 0.1-0.7-0.1-0.5-0.8 0.1-0.4 0.2-0.8 0.4-1.6 0.2-0.8 0.5-1.9 1-3.5 0.2-0.8 0.3-1.6-0.3-1.8-0.2-0.2-0.5-0.1-0.7 0.2-0.1 0.2-0.7 2-1.2 3.9-0.4 1.9-0.9 3.8-0.9 4.3-0.1 1 0.2 1.6 1 1.5zm9.6 0.3c0.3-0.1 0.7-0.5 1.3-1.4 0.4-0.5 0.8-1.1 1.2-1.7 0.2-0.3 0.5-0.3 0.6 0.2 0.1 0.6 0.2 1 0.3 1.4 0.3 1.4 0.9 2.1 1.5 1.1 0.2-0.2 0.7-1.8 1.4-3.7 0.3-0.8 0.6-1.7 0.9-2.6 0.4-0.9 0.7-1.7 0.9-2.4 0.4-0.8 0.3-1.4-0.1-1.6-0.3-0.1-0.5 0-0.7 0.3-0.2 0.1-0.6 1.3-1.1 2.5-0.5 1.3-1.1 2.7-1.3 3.6-0.4 0.7-0.6 0.3-0.7-0.5-0.2-0.9-0.5-1.5-0.9-1.5-0.5 0-0.8 0.5-1.4 1.3-0.2 0.3-0.3 0.5-0.5 0.3-0.2-0.3 0.2-1.8 0.7-4 0.3-1 0.2-1.7-0.2-1.8-0.3-0.2-0.6 0-0.8 0.3-0.1 0.2-0.4 1.5-0.8 3.1-0.1 0.8-0.3 1.7-0.5 2.6-0.2 0.9-0.4 1.8-0.5 2.7-0.2 1.1 0.1 1.9 0.7 1.8zm9-0.2c0.4 0.1 2.3 0 3.3-0.2 0.5-0.1 0.8-0.6 0.9-1.1 0-0.5-0.3-0.8-0.9-0.7 0 0-1.4 0.1-1.4 0.1-0.4 0.1-0.9 0.1-0.8-0.5 0.2-0.6 0.5-1.9 0.6-2.1 0.3-0.4 1.6-0.3 2-0.4 0.3 0 0.5-0.3 0.6-0.7 0.2-1-0.4-1-1.4-1-0.3 0-0.5-0.3-0.4-0.7 0.1-0.2 0.3-1 0.4-1.3 0.1-0.6 0.4-0.8 0.9-0.8 0.5-0.1 2-0.3 2.2-0.4 0.3-0.1 0.5-0.5 0.6-0.9 0-0.4-0.2-0.8-0.6-0.8-0.2 0-2.5 0.3-3 0.3-0.4 0.1-0.7 0.3-1 0.8-0.2 0.6-0.4 1.5-1.2 4.1-0.2 0.7-0.5 1.8-0.8 2.9-0.3 1-0.5 1.9-0.5 2.3 0 0.5 0.2 0.9 0.5 1.1zm7.3-1.9c1.1-0.3 2.2-0.7 2.7-0.9 0.3-0.1 0.6-0.5 0.6-0.9 0-1.1-0.9-0.8-2-0.4-0.6 0.1-0.7 0-0.5-0.7 0.1-0.4 0.2-0.8 0.5-1.6 0.2-0.8 0.6-1.8 1.1-3.4 0.2-0.7 0.4-1.6-0.2-1.7-0.2-0.1-0.4 0-0.7 0.3-0.2 0.2-0.8 2-1.3 3.9-0.6 1.8-1.1 3.7-1.2 4.2-0.1 0.9 0.2 1.5 1 1.2zm4.9-0.8c1.2-0.4 2.3-0.8 2.7-1 0.4-0.2 0.6-0.5 0.6-0.9 0.1-1.1-0.8-0.7-1.9-0.3-0.6 0.1-0.7 0-0.5-0.7 0.1-0.4 0.2-0.8 0.5-1.6 0.2-0.7 0.6-1.8 1.1-3.3 0.2-0.7 0.4-1.5-0.2-1.7-0.2 0-0.4 0.1-0.6 0.3-0.2 0.3-0.8 2-1.4 3.9-0.6 1.8-1.1 3.7-1.2 4.1-0.1 0.9 0.2 1.5 0.9 1.2zm8.4-1c0.3-0.1 0.5-0.3 0.7-0.8 0.3-0.9 0.5-1.7 0.7-2.5 0.3-0.8 0.5-1.5 0.7-2.2 0.5-1.4 0.9-2.5 1.4-3.7 0.3-0.7 0.5-1.4-0.1-1.5-0.3-0.1-0.6 0.1-0.8 0.5-0.4 1.1-0.8 1.9-1.1 2.6-0.2 0.8-0.5 1.4-0.7 2.2-0.2 0.7-0.6 1.1-0.7 0.6-0.1-0.6-0.4-2.3-0.6-2.9-0.3-0.9-0.5-1.4-1.1-1.3-0.4 0-0.8 0.8-1.1 1.9-0.4 1-0.7 2.3-1 3.2-0.4 1.7-0.9 3.5-0.7 4.1 0.2 0.3 0.3 0.4 0.6 0.4 0.4-0.1 0.6-0.5 0.7-1.2 0.1-0.4 0.3-1.7 0.6-2.8 0.2-1.1 0.6-2.1 0.8-2.1 0.2 0 0.3 0.2 0.4 0.7 0.1 1.2 0.3 2.3 0.4 3.4 0.2 0.9 0.3 1.6 0.9 1.4zm3.9-1c0.3 0 2.2-0.5 3.2-0.8 0.5-0.2 0.8-0.6 0.9-1.1 0-0.4-0.3-0.6-0.8-0.5 0 0-1.3 0.4-1.3 0.4-0.5 0.1-1 0.2-0.8-0.3 0.1-0.5 0.6-1.7 0.7-1.9 0.3-0.4 1.5-0.5 2-0.7 0.2-0.1 0.4-0.3 0.5-0.6 0.3-1-0.3-0.8-1.3-0.7-0.3 0-0.4-0.2-0.3-0.6 0.1-0.1 0.4-0.8 0.4-1.1 0.2-0.5 0.5-0.8 0.9-0.8 0.5-0.2 2.1-0.6 2.2-0.7 0.3-0.1 0.6-0.4 0.6-0.8 0.1-0.4-0.1-0.6-0.4-0.6-0.3 0.1-2.5 0.6-3.1 0.7-0.4 0.1-0.7 0.3-0.9 0.8-0.3 0.5-0.6 1.4-1.4 3.6-0.3 0.7-0.6 1.8-1 2.7-0.3 0.9-0.5 1.8-0.5 2.1-0.1 0.5 0.1 0.8 0.4 0.9zm8.1-3.1c0.6-0.2 1.3-0.7 1.8-1.3 0.5-0.6 0.9-1.3 0.9-1.9 0.2-1.4-0.4-1.6-1.4-2.2-0.4-0.2-0.3-0.5 0.2-0.9 0.5-0.4 0.9-0.6 1.4-0.7 0.6-0.2 1.2-0.3 1.3-1 0-0.5-0.6-0.7-1.3-0.5-0.7 0.2-1.5 0.6-2.1 1.2-0.7 0.6-1.2 1.3-1.3 2-0.1 0.8 0.4 1.1 1 1.4 0.5 0.3 1 0.6 0.9 1 0 0.5-0.6 1.2-1.1 1.4-0.6 0.2-0.9-0.4-1.4-0.2-0.3 0.1-0.5 0.5-0.6 0.9-0.1 0.7 0.8 1.1 1.7 0.8zm5.9-2.1c0.6-0.2 1.3-0.7 1.8-1.3 0.5-0.6 0.9-1.2 1-1.9 0.2-1.2-0.4-1.4-1.4-1.9-0.4-0.1-0.3-0.4 0.2-0.8 0.5-0.4 1-0.6 1.5-0.8 0.5-0.1 1.1-0.2 1.2-0.9 0.1-0.5-0.5-0.6-1.2-0.4-0.7 0.2-1.5 0.7-2.2 1.2-0.6 0.6-1.1 1.3-1.2 2-0.1 0.6 0.3 0.9 0.9 1.2 0.5 0.2 1 0.4 0.9 0.9-0.1 0.4-0.6 1.1-1.1 1.2-0.7 0.3-0.9-0.2-1.4 0-0.3 0.1-0.6 0.5-0.6 0.9-0.1 0.6 0.8 0.9 1.6 0.6z"/>
</svg>