<?xml version="1.0" encoding="UTF-8"?>
<svg version="1.1" xmlns="http://www.w3.org/2000/svg" width="360" height="252">
<path d="M0 0 C1.17207717 -0.00445784 2.34415433 -0.00891569 3.55174899 -0.01350862 C4.84559426 -0.01332426 6.13943952 -0.01313989 7.47249222 -0.01294994 C8.85602651 -0.01624873 10.23955984 -0.01997433 11.62309194 -0.02409142 C15.43372985 -0.0341178 19.24435202 -0.03782923 23.05500126 -0.04048073 C27.16146706 -0.04438186 31.26792037 -0.05396028 35.3743782 -0.0626936 C45.29537974 -0.08246271 55.21638229 -0.09252447 65.1373986 -0.10142139 C69.80766293 -0.10580327 74.47792612 -0.11117031 79.14818954 -0.11641026 C94.66997797 -0.13342245 110.19176569 -0.14791734 125.71356201 -0.155159 C129.74219387 -0.15706893 133.77082572 -0.15898926 137.79945755 -0.16094494 C138.80077144 -0.16142868 139.80208532 -0.16191242 140.83374205 -0.16241082 C157.05983905 -0.1707138 173.28586239 -0.19605529 189.51192722 -0.22852562 C206.16505023 -0.2615793 222.81813579 -0.2796062 239.47129178 -0.28280324 C248.82381714 -0.28496983 258.17623506 -0.29374031 267.52872849 -0.31926441 C275.4925391 -0.34094827 283.45621619 -0.34903324 291.42005298 -0.33929763 C295.48373013 -0.33474628 299.54713165 -0.33668742 303.61077118 -0.35605907 C307.33175907 -0.37364421 311.0522693 -0.37273129 314.77326193 -0.35716178 C316.75527066 -0.35365056 318.73728412 -0.36984665 320.71922374 -0.38676625 C327.49906066 -0.33756824 331.93874023 -0.02208662 337.40297318 4.13422108 C342.40780741 9.5341738 342.7531619 13.98343856 342.68422318 21.11859608 C342.1672807 26.66136814 339.92832267 29.72048252 335.84047318 33.50922108 C332.07179993 36.02166991 329.23077166 36.26065079 324.80594635 36.26844215 C323.63386918 36.2729 322.46179202 36.27735784 321.25419736 36.28195077 C319.96035209 36.28176641 318.66650683 36.28158205 317.33345413 36.2813921 C315.94991984 36.28469088 314.56638651 36.28841648 313.18285441 36.29253358 C309.3722165 36.30255995 305.56159433 36.30627139 301.75094509 36.30892289 C297.64447929 36.31282401 293.53802598 36.32240244 289.43156815 36.33113575 C279.51056661 36.35090487 269.58956406 36.36096662 259.66854775 36.36986354 C254.99828342 36.37424543 250.32802023 36.37961247 245.65775681 36.38485241 C230.13596838 36.40186461 214.61418066 36.41635949 199.09238434 36.42360115 C195.06375248 36.42551109 191.03512063 36.42743142 187.0064888 36.42938709 C186.00517491 36.42987083 185.00386103 36.43035457 183.9722043 36.43085297 C167.7461073 36.43915596 151.52008396 36.46449744 135.29401913 36.49696777 C118.64089612 36.53002146 101.98781056 36.54804835 85.33465457 36.55124539 C75.98212921 36.55341198 66.62971129 36.56218246 57.27721786 36.58770657 C49.31340725 36.60939042 41.34973016 36.61747539 33.38589337 36.60773978 C29.32221622 36.60318843 25.2588147 36.60512957 21.19517517 36.62450123 C17.47418728 36.64208636 13.75367705 36.64117344 10.03268442 36.62560394 C8.05067569 36.62209272 6.06866223 36.6382888 4.08672261 36.65520841 C-2.69311431 36.60601039 -7.13279388 36.29052878 -12.59702682 32.13422108 C-17.60186106 26.73426835 -17.94721554 22.2850036 -17.87827682 15.14984608 C-17.36133435 9.60707401 -15.12237632 6.54795963 -11.03452682 2.75922108 C-7.26585358 0.24677224 -4.42482531 0.00779136 0 0 Z " fill="#000000" transform="translate(17.597026824951172,215.86577892303467)"/>
<path d="M0 0 C1.17207717 -0.00445784 2.34415433 -0.00891569 3.55174899 -0.01350862 C4.84559426 -0.01332426 6.13943952 -0.01313989 7.47249222 -0.01294994 C8.85602651 -0.01624873 10.23955984 -0.01997433 11.62309194 -0.02409142 C15.43372985 -0.0341178 19.24435202 -0.03782923 23.05500126 -0.04048073 C27.16146706 -0.04438186 31.26792037 -0.05396028 35.3743782 -0.0626936 C45.29537974 -0.08246271 55.21638229 -0.09252447 65.1373986 -0.10142139 C69.80766293 -0.10580327 74.47792612 -0.11117031 79.14818954 -0.11641026 C94.66997797 -0.13342245 110.19176569 -0.14791734 125.71356201 -0.155159 C129.74219387 -0.15706893 133.77082572 -0.15898926 137.79945755 -0.16094494 C138.80077144 -0.16142868 139.80208532 -0.16191242 140.83374205 -0.16241082 C157.05983905 -0.1707138 173.28586239 -0.19605529 189.51192722 -0.22852562 C206.16505023 -0.2615793 222.81813579 -0.2796062 239.47129178 -0.28280324 C248.82381714 -0.28496983 258.17623506 -0.29374031 267.52872849 -0.31926441 C275.4925391 -0.34094827 283.45621619 -0.34903324 291.42005298 -0.33929763 C295.48373013 -0.33474628 299.54713165 -0.33668742 303.61077118 -0.35605907 C307.33175907 -0.37364421 311.0522693 -0.37273129 314.77326193 -0.35716178 C316.75527066 -0.35365056 318.73728412 -0.36984665 320.71922374 -0.38676625 C327.49906066 -0.33756824 331.93874023 -0.02208662 337.40297318 4.13422108 C342.40780741 9.5341738 342.7531619 13.98343856 342.68422318 21.11859608 C342.1672807 26.66136814 339.92832267 29.72048252 335.84047318 33.50922108 C332.07179993 36.02166991 329.23077166 36.26065079 324.80594635 36.26844215 C323.63386918 36.2729 322.46179202 36.27735784 321.25419736 36.28195077 C319.96035209 36.28176641 318.66650683 36.28158205 317.33345413 36.2813921 C315.94991984 36.28469088 314.56638651 36.28841648 313.18285441 36.29253358 C309.3722165 36.30255995 305.56159433 36.30627139 301.75094509 36.30892289 C297.64447929 36.31282401 293.53802598 36.32240244 289.43156815 36.33113575 C279.51056661 36.35090487 269.58956406 36.36096662 259.66854775 36.36986354 C254.99828342 36.37424543 250.32802023 36.37961247 245.65775681 36.38485241 C230.13596838 36.40186461 214.61418066 36.41635949 199.09238434 36.42360115 C195.06375248 36.42551109 191.03512063 36.42743142 187.0064888 36.42938709 C186.00517491 36.42987083 185.00386103 36.43035457 183.9722043 36.43085297 C167.7461073 36.43915596 151.52008396 36.46449744 135.29401913 36.49696777 C118.64089612 36.53002146 101.98781056 36.54804835 85.33465457 36.55124539 C75.98212921 36.55341198 66.62971129 36.56218246 57.27721786 36.58770657 C49.31340725 36.60939042 41.34973016 36.61747539 33.38589337 36.60773978 C29.32221622 36.60318843 25.2588147 36.60512957 21.19517517 36.62450123 C17.47418728 36.64208636 13.75367705 36.64117344 10.03268442 36.62560394 C8.05067569 36.62209272 6.06866223 36.6382888 4.08672261 36.65520841 C-2.69311431 36.60601039 -7.13279388 36.29052878 -12.59702682 32.13422108 C-17.60186106 26.73426835 -17.94721554 22.2850036 -17.87827682 15.14984608 C-17.36133435 9.60707401 -15.12237632 6.54795963 -11.03452682 2.75922108 C-7.26585358 0.24677224 -4.42482531 0.00779136 0 0 Z " fill="#000000" transform="translate(17.597026824951172,107.86577892303467)"/>
<path d="M0 0 C1.17207717 -0.00445784 2.34415433 -0.00891569 3.55174899 -0.01350862 C4.84559426 -0.01332426 6.13943952 -0.01313989 7.47249222 -0.01294994 C8.85602651 -0.01624873 10.23955984 -0.01997433 11.62309194 -0.02409142 C15.43372985 -0.0341178 19.24435202 -0.03782923 23.05500126 -0.04048073 C27.16146706 -0.04438186 31.26792037 -0.05396028 35.3743782 -0.0626936 C45.29537974 -0.08246271 55.21638229 -0.09252447 65.1373986 -0.10142139 C69.80766293 -0.10580327 74.47792612 -0.11117031 79.14818954 -0.11641026 C94.66997797 -0.13342245 110.19176569 -0.14791734 125.71356201 -0.155159 C129.74219387 -0.15706893 133.77082572 -0.15898926 137.79945755 -0.16094494 C138.80077144 -0.16142868 139.80208532 -0.16191242 140.83374205 -0.16241082 C157.05983905 -0.1707138 173.28586239 -0.19605529 189.51192722 -0.22852562 C206.16505023 -0.2615793 222.81813579 -0.2796062 239.47129178 -0.28280324 C248.82381714 -0.28496983 258.17623506 -0.29374031 267.52872849 -0.31926441 C275.4925391 -0.34094827 283.45621619 -0.34903324 291.42005298 -0.33929763 C295.48373013 -0.33474628 299.54713165 -0.33668742 303.61077118 -0.35605907 C307.33175907 -0.37364421 311.0522693 -0.37273129 314.77326193 -0.35716178 C316.75527066 -0.35365056 318.73728412 -0.36984665 320.71922374 -0.38676625 C327.49906066 -0.33756824 331.93874023 -0.02208662 337.40297318 4.13422108 C342.40780741 9.5341738 342.7531619 13.98343856 342.68422318 21.11859608 C342.1672807 26.66136814 339.92832267 29.72048252 335.84047318 33.50922108 C332.07179993 36.02166991 329.23077166 36.26065079 324.80594635 36.26844215 C323.63386918 36.2729 322.46179202 36.27735784 321.25419736 36.28195077 C319.96035209 36.28176641 318.66650683 36.28158205 317.33345413 36.2813921 C315.94991984 36.28469088 314.56638651 36.28841648 313.18285441 36.29253358 C309.3722165 36.30255995 305.56159433 36.30627139 301.75094509 36.30892289 C297.64447929 36.31282401 293.53802598 36.32240244 289.43156815 36.33113575 C279.51056661 36.35090487 269.58956406 36.36096662 259.66854775 36.36986354 C254.99828342 36.37424543 250.32802023 36.37961247 245.65775681 36.38485241 C230.13596838 36.40186461 214.61418066 36.41635949 199.09238434 36.42360115 C195.06375248 36.42551109 191.03512063 36.42743142 187.0064888 36.42938709 C186.00517491 36.42987083 185.00386103 36.43035457 183.9722043 36.43085297 C167.7461073 36.43915596 151.52008396 36.46449744 135.29401913 36.49696777 C118.64089612 36.53002146 101.98781056 36.54804835 85.33465457 36.55124539 C75.98212921 36.55341198 66.62971129 36.56218246 57.27721786 36.58770657 C49.31340725 36.60939042 41.34973016 36.61747539 33.38589337 36.60773978 C29.32221622 36.60318843 25.2588147 36.60512957 21.19517517 36.62450123 C17.47418728 36.64208636 13.75367705 36.64117344 10.03268442 36.62560394 C8.05067569 36.62209272 6.06866223 36.6382888 4.08672261 36.65520841 C-2.69311431 36.60601039 -7.13279388 36.29052878 -12.59702682 32.13422108 C-17.60186106 26.73426835 -17.94721554 22.2850036 -17.87827682 15.14984608 C-17.36133435 9.60707401 -15.12237632 6.54795963 -11.03452682 2.75922108 C-7.26585358 0.24677224 -4.42482531 0.00779136 0 0 Z " fill="#000000" transform="translate(17.597026824951172,-0.13422107696533203)"/>
</svg>
